# xmcd CD database file
#
# Track frame offsets:
#	150
#	16412
#	31517
#	54837
#	73097
#	91135
#	106355
#	121202
#	144985
#	160782
#	179407
#	196384
#	213800
#	230580
#	247705
#
# Disc length: 3536 seconds
#
# Revision: 2
# Processed by: cddbd v1.5.2PL0 Copyright (c) Steve Scherf et al.
# Submitted via: CDex 1.70beta2
#
DISCID=b70dce0f
DTITLE=Various Artist - Made of Country
DYEAR=1995
DGENRE=Country
TTITLE0=George Strait - Adalida
TTITLE1=Mark Collie - Hard Lovin Woman
TTITLE2=The Mavericks - I should have been true
TTITLE3=Rhett Akins - That ain't my truck
TTITLE4=Vince Gill - I still believe in you
TTITLE5=Trisha Yearwood - Thinkin' about you
TTITLE6=David Lee Murphy - Party crowd
TTITLE7=Sam Moore and Conway Twitty - Rainy night in Georgia
TTITLE8=Dawn Sears - Runaway train
TTITLE9=Tracy Byrd - The keeper of the stars
TTITLE10=Rodney Crowell - Please remember me
TTITLE11=Reba Mcentire - he heart is a lonly hunter
TTITLE12=Mark Chesnutt - She dreams
TTITLE13=Marty Stuart - The likes of me
TTITLE14=Vince Gill and Gladys Knight - Ain't nothing like the real thing
EXTD=YEAR: 1995
EXTT0=
EXTT1=
EXTT2=
EXTT3=
EXTT4=
EXTT5=
EXTT6=
EXTT7=
EXTT8=
EXTT9=
EXTT10=
EXTT11=
EXTT12=
EXTT13=
EXTT14=
PLAYORDER=
